<?xml version="1.0" standalone="no"?>
<!DOCTYPE svg PUBLIC "-//W3C//DTD SVG 20010904//EN"
 "http://www.w3.org/TR/2001/REC-SVG-20010904/DTD/svg10.dtd">
<svg version="1.0" xmlns="http://www.w3.org/2000/svg"
 width="512.000000pt" height="512.000000pt" viewBox="0 0 512.000000 512.000000"
 preserveAspectRatio="xMidYMid meet">
<metadata>
Created by potrace 1.11, written by Peter Selinger 2001-2013
</metadata>
<g transform="translate(0.000000,512.000000) scale(0.100000,-0.100000)"
fill="#000000" stroke="none">
<path d="M225 4691 c-22 -10 -52 -31 -67 -47 -60 -65 -58 -26 -58 -934 0 -752
2 -834 16 -863 31 -59 68 -100 109 -118 38 -18 93 -19 1025 -19 938 0 987 1
1025 19 22 10 54 34 72 52 66 70 63 23 63 934 0 903 2 864 -58 929 -15 16 -45
37 -67 47 -38 18 -87 19 -1030 19 -943 0 -992 -1 -1030 -19z"/>
<path d="M2845 2391 c-22 -10 -54 -34 -72 -52 -66 -70 -63 -23 -63 -936 0
-785 1 -830 19 -868 10 -22 34 -54 52 -72 71 -67 7 -63 1086 -63 931 0 980 1
1018 19 22 10 54 34 72 52 66 70 63 23 63 934 0 911 3 864 -63 934 -18 18 -50
42 -72 52 -38 18 -86 19 -1020 19 -934 0 -982 -1 -1020 -19z"/>
</g>
</svg>
