<svg version="1" xmlns="http://www.w3.org/2000/svg" width="682.667" height="682.667" viewBox="0 0 512.000000 512.000000"><path d="M13.5 33.9c-2.2 1-5.4 3.4-7.2 5.2C-.3 46.1 0 41 0 136.2c0 81.9.1 86.5 1.9 90.3 1 2.2 3.4 5.4 5.2 7.2 7.1 6.7.3 6.3 113.1 6.3 97.5 0 102.5-.1 106.3-1.9 2.2-1 5.4-3.4 7.2-5.2 6.6-7 6.3-2 6.3-96.9s.3-89.9-6.3-96.9c-1.8-1.8-5-4.2-7.2-5.2-3.8-1.8-8.8-1.9-106.5-1.9s-102.7.1-106.5 1.9zM285.5 33.9c-2.2 1-5.4 3.4-7.2 5.2-6.6 7-6.3 1.9-6.3 97.1 0 81.9.1 86.5 1.9 90.3 1 2.2 3.4 5.4 5.2 7.2 7.1 6.7.3 6.3 113.1 6.3 97.5 0 102.5-.1 106.3-1.9 2.2-1 5.4-3.4 7.2-5.2 6.6-7 6.3-2 6.3-96.9s.3-89.9-6.3-96.9c-1.8-1.8-5-4.2-7.2-5.2-3.8-1.8-8.8-1.9-106.5-1.9s-102.7.1-106.5 1.9zM13.5 273.9c-2.2 1-5.4 3.4-7.2 5.2-6.6 7-6.3 1.9-6.3 97.1 0 81.9.1 86.5 1.9 90.3 1 2.2 3.4 5.4 5.2 7.2 7.1 6.7.3 6.3 113.1 6.3 97.5 0 102.5-.1 106.3-1.9 2.2-1 5.4-3.4 7.2-5.2 6.6-7 6.3-2 6.3-96.9s.3-89.9-6.3-96.9c-1.8-1.8-5-4.2-7.2-5.2-3.8-1.8-8.8-1.9-106.5-1.9s-102.7.1-106.5 1.9zM285.5 273.9c-2.2 1-5.4 3.4-7.2 5.2-6.6 7-6.3 1.9-6.3 97.1 0 81.9.1 86.5 1.9 90.3 1 2.2 3.4 5.4 5.2 7.2 7.1 6.7.3 6.3 113.1 6.3 97.5 0 102.5-.1 106.3-1.9 2.2-1 5.4-3.4 7.2-5.2 6.6-7 6.3-2 6.3-96.9s.3-89.9-6.3-96.9c-1.8-1.8-5-4.2-7.2-5.2-3.8-1.8-8.8-1.9-106.5-1.9s-102.7.1-106.5 1.9z"/></svg>